<svg width="1300" height="196" viewBox="0 0 1300 196" fill="none" xmlns="http://www.w3.org/2000/svg">
<path d="M0 104.384C0 47.0414 39.0801 10.6089 92.4272 10.6089C145.774 10.6089 180.92 43.5999 180.92 99.7084C180.92 155.817 142.077 193.246 88.7538 193.246C35.4304 193.246 0 160.777 0 104.384ZM94.6312 189.805C129.28 189.805 160.018 164.931 160.018 107.351C160.018 49.7709 126.104 14.0504 86.0284 14.0504C51.3801 14.0504 20.9028 38.9242 20.9028 96.2669C20.9028 156.814 54.5795 189.805 94.6312 189.805Z" fill="white"/>
<path d="M251.213 186.364L244.079 137.138H245.312C253.915 170.129 271.357 189.069 301.835 189.069C325.676 189.069 338.948 177.012 338.948 157.55C338.948 138.088 325.178 123.586 290.032 109.796C253.417 95.7689 238.652 80.7449 238.652 60.3095C238.652 33.2284 264.224 10.5856 303.541 10.5856C320.249 10.5856 334.018 14.0271 341.389 16.4955L345.323 0H346.555V53.6876H345.323C340.654 28.3391 325.652 13.8135 298.612 13.8135C271.571 13.8135 256.095 26.8675 256.095 48.0387C256.095 67.4773 269.604 81.5282 303.778 94.8195C337.692 107.874 353.665 123.135 353.665 144.781C353.665 169.393 333.023 193.27 292.473 193.27C273.538 193.27 256.593 188.357 251.189 186.387L251.213 186.364Z" fill="white"/>
<path d="M409.004 20.4591L396.704 15.546V14.3118H446.851V15.546L429.646 20.4591L490.363 165.192L516.906 97.5014C543.213 30.7836 538.544 21.4322 513.209 16.2581L509.512 15.5223V14.2881H563.096V15.5223L550.796 20.4353L482.211 193.247H481.974L409.004 20.4591Z" fill="white"/>
<path d="M603.668 188.334L620.874 183.421V20.4594L603.668 15.5463V14.3121H706.405L708.87 0.0239258H710.102L716.975 51.2193H715.742L714.51 47.7778C706.144 24.3993 697.541 17.0179 658.461 17.0179H639.786V94.0602H661.898C681.568 94.0602 689.436 85.943 692.138 69.4475H693.37V125.319H692.138C689.436 105.88 681.568 96.766 661.898 96.766H639.786V186.862H659.457C706.168 186.862 719.439 175.541 729.512 148.697L731.716 142.787H732.948L723.611 189.568H603.668V188.334Z" fill="white"/>
<path d="M815.541 188.334L836.918 183.42V17.0176H829.785C794.402 17.0176 784.069 25.8706 772.764 50.0086L771.034 53.7112H769.802L783.808 0.0473633H785.04L786.036 14.3356H906.713L907.708 0.0473633H908.94L922.947 53.7112H921.714L919.984 50.0086C908.68 25.8943 898.347 17.0176 862.964 17.0176H855.83V183.42L877.207 188.334V189.568H815.518V188.334H815.541Z" fill="white"/>
<path d="M969.656 188.334L986.862 183.421V20.4597L969.656 15.5467V14.3125H1023V15.5467L1005.8 20.4597V183.421L1023 188.334V189.568H969.656V188.334Z" fill="white"/>
<path d="M1107.8 22.9278L1099.43 99.7328C1091.56 172.598 1099.2 182.946 1124.51 187.622L1128.44 188.358V189.592H1070.92V188.358L1086.9 183.445L1105.07 20.4832L1085.9 15.5701V14.3359H1124.01L1187.67 165.715L1250.82 14.3359H1285V15.5701L1266.82 20.4832L1284.03 183.445L1300 188.358V189.592H1247.89V188.358L1265.09 183.445L1248.38 27.3899L1180.56 196H1180.06L1107.8 22.9516V22.9278Z" fill="white"/>
</svg>
