<svg width="101" height="15" viewBox="0 0 101 15" fill="none" xmlns="http://www.w3.org/2000/svg">
<path d="M0.5 7.98869C0.5 3.60022 3.50616 0.812012 7.60978 0.812012C11.7134 0.812012 14.4169 3.33684 14.4169 7.63085C14.4169 11.9249 11.429 14.7894 7.32722 14.7894C3.22542 14.7894 0.5 12.3045 0.5 7.98869ZM7.77932 14.526C10.4446 14.526 12.809 12.6224 12.809 8.21574C12.809 3.80911 10.2003 1.07539 7.11757 1.07539C4.45231 1.07539 2.1079 2.979 2.1079 7.36747C2.1079 12.0012 4.69842 14.526 7.77932 14.526Z" fill="#1E1E1E"/>
<path d="M19.8237 14.2625L19.275 10.4953H19.3698C20.0315 13.0201 21.3733 14.4696 23.7177 14.4696C25.5516 14.4696 26.5725 13.5469 26.5725 12.0574C26.5725 10.5679 25.5133 9.4581 22.8098 8.40276C19.9932 7.32926 18.8575 6.17946 18.8575 4.61552C18.8575 2.54299 20.8245 0.810124 23.8489 0.810124C25.1342 0.810124 26.1933 1.0735 26.7603 1.26241L27.0629 0H27.1577V4.10874H27.0629C26.7038 2.16881 25.5498 1.05716 23.4697 1.05716C21.3897 1.05716 20.1992 2.05619 20.1992 3.67643C20.1992 5.16408 21.2384 6.2394 23.8672 7.2566C26.4759 8.25563 27.7046 9.42359 27.7046 11.0802C27.7046 12.9638 26.1168 14.7911 22.9976 14.7911C21.541 14.7911 20.2375 14.4151 19.8219 14.2643L19.8237 14.2625Z" fill="#1E1E1E"/>
<path d="M31.9618 1.56602L31.0156 1.19002V1.09557H34.8731V1.19002L33.5496 1.56602L38.2202 12.6426L40.262 7.46212C42.2855 2.35616 41.9264 1.64049 39.9776 1.24451L39.6932 1.1882V1.09375H43.8151V1.1882L42.8689 1.5642L37.5931 14.7896H37.5749L31.9618 1.56602Z" fill="#1E1E1E"/>
<path d="M46.9355 14.4134L48.2591 14.0374V1.56589L46.9355 1.18989V1.09544H54.8383L55.0279 0.00195312H55.1227L55.6514 3.91997H55.5566L55.4618 3.65659C54.8183 1.86742 54.1565 1.30251 51.1504 1.30251H49.7138V7.19861H51.4147C52.9278 7.19861 53.5331 6.5774 53.7409 5.31498H53.8357V9.59084H53.7409C53.5331 8.10319 52.9278 7.40568 51.4147 7.40568H49.7138V14.3008H51.2269C54.8201 14.3008 55.841 13.4344 56.6158 11.38L56.7853 10.9277H56.8801L56.1619 14.5079H46.9355V14.4134Z" fill="#1E1E1E"/>
<path d="M63.2338 14.4136L64.8782 14.0376V1.30265H64.3294C61.6077 1.30265 60.8128 1.98017 59.9432 3.82747L59.8102 4.11083H59.7154L60.7928 0.00390625H60.8876L60.9641 1.09739H70.247L70.3235 0.00390625H70.4183L71.4957 4.11083H71.4009L71.2679 3.82747C70.3983 1.98199 69.6034 1.30265 66.8817 1.30265H66.3329V14.0376L67.9773 14.4136V14.508H63.232V14.4136H63.2338Z" fill="#1E1E1E"/>
<path d="M75.0889 14.4132L76.4124 14.0372V1.56567L75.0889 1.18967V1.09521H79.1925V1.18967L77.869 1.56567V14.0372L79.1925 14.4132V14.5077H75.0889V14.4132Z" fill="#1E1E1E"/>
<path d="M85.7155 1.75471L85.072 7.63265C84.4668 13.2091 85.0538 14.001 87.0008 14.3589L87.3034 14.4152V14.5096H82.8789V14.4152L84.1076 14.0392L85.5059 1.56762L84.0311 1.19162V1.09717H86.9625L91.8591 12.6823L96.7175 1.09717H99.3463V1.19162L97.948 1.56762L99.2715 14.0392L100.5 14.4152V14.5096H96.4914V14.4152L97.8149 14.0392L96.5297 2.0962L91.3122 15.0001H91.2739L85.7155 1.75653V1.75471Z" fill="#1E1E1E"/>
</svg>
