<svg width="232" height="35" viewBox="0 0 232 35" fill="none" xmlns="http://www.w3.org/2000/svg">
<path d="M0 18.64C0 8.40032 6.9743 1.89453 16.4947 1.89453C26.0151 1.89453 32.2873 7.78577 32.2873 17.8051C32.2873 27.8244 25.3553 34.5082 15.8391 34.5082C6.32297 34.5082 0 28.7102 0 18.64ZM16.888 33.8937C23.0714 33.8937 28.557 29.452 28.557 19.1698C28.557 8.88772 22.5047 2.50908 15.3528 2.50908C9.16936 2.50908 3.73034 6.95082 3.73034 17.1906C3.73034 28.0025 9.74033 33.8937 16.888 33.8937Z" fill="#A47B5B"/>
<path d="M44.8314 33.2791L43.5584 24.4889H43.7783C45.3136 30.3801 48.4264 33.7623 53.8654 33.7623C58.1202 33.7623 60.4887 31.6092 60.4887 28.1338C60.4887 24.6584 58.0314 22.0688 51.7592 19.6064C45.2248 17.1015 42.5898 14.4187 42.5898 10.7695C42.5898 5.93362 47.1534 1.89028 54.17 1.89028C57.1517 1.89028 59.609 2.50483 60.9243 2.94562L61.6264 0H61.8463V9.58703H61.6264C60.7932 5.06053 58.116 2.46669 53.2902 2.46669C48.4645 2.46669 45.7027 4.79775 45.7027 8.57832C45.7027 12.0495 48.1135 14.5586 54.2123 16.932C60.2645 19.2631 63.1152 21.9883 63.1152 25.8536C63.1152 30.2487 59.4314 34.5125 52.1948 34.5125C48.8155 34.5125 45.7915 33.6351 44.8272 33.2834L44.8314 33.2791Z" fill="#A47B5B"/>
<path d="M72.99 3.65323L70.7949 2.7759V2.55551H79.7444V2.7759L76.6738 3.65323L87.5096 29.4984L92.2465 17.4107C96.9411 5.49689 96.1079 3.827 91.5867 2.90305L90.9269 2.77166V2.55127H100.49V2.77166L98.2945 3.64899L86.0546 34.508H86.0123L72.99 3.65323Z" fill="#A47B5B"/>
<path d="M107.73 33.6311L110.801 32.7537V3.65357L107.73 2.77624V2.55585H126.065L126.505 0.00439453H126.725L127.951 9.14641H127.731L127.511 8.53185C126.018 4.35713 124.483 3.03902 117.509 3.03902H114.176V16.7965H118.122C121.633 16.7965 123.037 15.347 123.519 12.4014H123.739V22.3784H123.519C123.037 18.9072 121.633 17.2797 118.122 17.2797H114.176V33.3683H117.687C126.023 33.3683 128.391 31.3466 130.189 26.5531L130.582 25.4978H130.802L129.136 33.8515H107.73V33.6311Z" fill="#A47B5B"/>
<path d="M145.544 33.6312L149.359 32.7539V3.03917H148.085C141.771 3.03917 139.927 4.62006 137.91 8.93041L137.601 9.59158H137.381L139.88 0.00878906H140.1L140.278 2.56025H161.814L161.992 0.00878906H162.212L164.711 9.59158H164.491L164.183 8.93041C162.165 4.6243 160.321 3.03917 154.007 3.03917H152.734V32.7539L156.549 33.6312V33.8516H145.539V33.6312H145.544Z" fill="#A47B5B"/>
<path d="M173.047 33.6304L176.117 32.7531V3.6529L173.047 2.77557V2.55518H182.567V2.77557L179.497 3.6529V32.7531L182.567 33.6304V33.8508H173.047V33.6304Z" fill="#A47B5B"/>
<path d="M197.698 4.09432L196.205 17.8095C194.801 30.821 196.163 32.6689 200.68 33.5039L201.382 33.6353V33.8557H191.117V33.6353L193.968 32.7579L197.212 3.65778L193.79 2.78045V2.56006H200.591L211.951 29.5919L223.223 2.56006H229.321V2.78045L226.077 3.65778L229.148 32.7579L231.999 33.6353V33.8557H222.698V33.6353L225.769 32.7579L222.787 4.89112L210.682 35H210.594L197.698 4.09856V4.09432Z" fill="#A47B5B"/>
</svg>
