<svg width="530" height="20" viewBox="0 0 530 20" fill="none" xmlns="http://www.w3.org/2000/svg">
<path d="M8.75074 17.13C6.20535 17.13 4.12685 16.3079 2.48514 14.6487C0.828375 12.9745 0 10.9566 0 8.57992C0 6.20325 0.828375 4.17037 2.48514 2.49623C4.12685 0.837038 6.20535 0.0149231 8.75074 0.0149231C10.272 0.0149231 11.6877 0.373664 12.968 1.12105C14.2482 1.85348 15.2573 2.84002 15.9652 4.09563L14.4892 4.94764C13.962 3.94615 13.1939 3.13899 12.1547 2.54108C11.1154 1.94317 9.98579 1.64421 8.75074 1.64421C6.65719 1.64421 4.95524 2.31686 3.64489 3.6472C2.31947 5.00744 1.67183 6.65168 1.67183 8.59487C1.67183 10.5381 2.33453 12.1823 3.64489 13.5425C4.94018 14.8878 6.64213 15.5455 8.75074 15.5455C9.98579 15.5455 11.1305 15.2466 12.1547 14.6487C13.1939 14.0508 13.962 13.2436 14.4892 12.2421L15.9652 13.0642C15.2875 14.3049 14.2934 15.3064 12.983 16.0388C11.6727 16.7712 10.272 17.1449 8.73568 17.1449L8.75074 17.13Z" fill="white"/>
<path d="M35.094 8.25113C35.9224 8.59493 36.5701 9.11809 37.052 9.83558C37.534 10.5381 37.7599 11.3453 37.7599 12.2272C37.7599 13.4978 37.3081 14.5889 36.4044 15.4858C35.5007 16.3826 34.4012 16.8311 33.121 16.8311H25.8613V0.284027H32.5788C33.7988 0.284027 34.8531 0.717508 35.7417 1.61437C36.6153 2.48133 37.052 3.52766 37.052 4.73842C37.052 6.27803 36.4044 7.4589 35.094 8.26607V8.25113ZM32.5637 1.83858H27.5181V7.60838H32.5637C33.3318 7.60838 33.9795 7.32437 34.5368 6.78625C35.094 6.2033 35.3651 5.51571 35.3651 4.72348C35.3651 3.93126 35.094 3.27356 34.5368 2.6906C33.9795 2.12259 33.3168 1.83858 32.5637 1.83858ZM27.5181 15.2765H33.121C33.9494 15.2765 34.6422 14.9776 35.2145 14.3946C35.8019 13.8117 36.1032 13.0792 36.1032 12.2122C36.1032 11.3453 35.8019 10.6428 35.2145 10.0598C34.6422 9.46189 33.9494 9.16294 33.121 9.16294H27.5181V15.2616V15.2765Z" fill="white"/>
<path d="M49.4326 9.26757V15.2765H57.5357V16.8311H47.7607V0.284027H57.4152V1.83858H49.4326V7.69806H56.8127V9.25262H49.4326V9.26757Z" fill="white"/>
<path d="M66.1211 0.284027H78.0348V1.83858H72.9139V16.8311H71.242V1.83858H66.1211V0.284027Z" fill="white"/>
<path d="M84.5854 16.8462V15.3813C85.7451 15.5457 86.6036 15.187 87.176 14.32C87.7634 13.453 88.0646 11.8387 88.0646 9.4919V0.299103H98.8788V16.8462H97.2069V1.85365H89.7214V9.53675C89.7214 11.0315 89.6009 12.2871 89.3599 13.2886C89.1189 14.2901 88.7725 15.0674 88.3056 15.5756C87.8387 16.0988 87.3115 16.4575 86.709 16.6369C86.1066 16.8312 85.3987 16.891 84.5703 16.8312L84.5854 16.8462Z" fill="white"/>
<path d="M115.794 16.8462H109.845V0.299103H111.517V6.44258H115.809C117.3 6.44258 118.55 6.93585 119.544 7.93734C120.538 8.92389 121.051 10.1645 121.051 11.6444C121.051 13.1242 120.553 14.3648 119.544 15.3514C118.55 16.3529 117.3 16.8462 115.809 16.8462H115.794ZM111.502 7.99714V15.2766H115.794C116.833 15.2766 117.677 14.9329 118.339 14.2602C119.017 13.5876 119.364 12.7056 119.364 11.6294C119.364 10.5532 119.017 9.70117 118.339 9.02853C117.677 8.34094 116.818 7.9822 115.794 7.9822H111.502V7.99714ZM124.485 16.8462H122.813V0.299103H124.485V16.8462Z" fill="white"/>
<path d="M137.121 9.26757V15.2765H145.224V16.8311H135.449V0.284027H145.104V1.83858H137.121V7.69806H144.501V9.25262H137.121V9.26757Z" fill="white"/>
<path d="M168.327 0.284027H174.276C175.767 0.284027 177.017 0.7773 178.011 1.77879C179.005 2.78029 179.517 4.00599 179.517 5.4858C179.517 6.96562 179.02 8.20628 178.011 9.19283C177.017 10.1794 175.767 10.6876 174.276 10.6876H169.983V16.8311H168.312V0.284027H168.327ZM169.998 9.13304H174.291C175.33 9.13304 176.174 8.78924 176.836 8.1166C177.514 7.44395 177.861 6.56204 177.861 5.4858C177.861 4.40957 177.514 3.55756 176.836 2.88492C176.174 2.19732 175.315 1.83858 174.291 1.83858H169.998V9.11809V9.13304Z" fill="white"/>
<path d="M191.207 9.26757V15.2765H199.31V16.8311H189.535V0.284027H199.19V1.83858H191.207V7.69806H198.587V9.25262H191.207V9.26757Z" fill="white"/>
<path d="M226.465 15.2765V0.284027H228.136V16.8311H209.31V0.284027H210.981V15.2765H217.895V0.284027H219.566V15.2765H226.48H226.465Z" fill="white"/>
<path d="M240.758 9.26757V15.2765H248.861V16.8311H239.086V0.284027H248.74V1.83858H240.758V7.69806H248.138V9.25262H240.758V9.26757Z" fill="white"/>
<path d="M269.587 7.54859V0.284027H271.259V16.8311H269.587V9.10315H260.535V16.8311H258.863V0.284027H260.535V7.54859H269.587Z" fill="white"/>
<path d="M294.603 16.8462H292.931V3.36337L283.638 16.8462H282.207V0.299103H283.879V13.7819L293.172 0.299103H294.603V16.8462Z" fill="white"/>
<path d="M309.845 0.284027H316.517V16.8311H314.846V10.2093H310.839L306.26 16.8311H304.348L308.987 10.1345C307.767 9.91031 306.773 9.35726 306.004 8.4604C305.206 7.53364 304.815 6.45741 304.815 5.24665C304.815 3.87146 305.297 2.70554 306.26 1.74889C307.239 0.777293 308.429 0.284027 309.815 0.284027H309.845ZM309.845 8.65471H314.846V1.83858H309.845C308.926 1.83858 308.143 2.16743 307.48 2.84007C306.833 3.51272 306.501 4.31989 306.501 5.24665C306.501 6.1734 306.833 6.96563 307.48 7.65322C308.128 8.31092 308.911 8.63976 309.845 8.63976V8.65471Z" fill="white"/>
<path d="M352.5 0.284027V15.2765H354.292V20H352.621V16.8311H340.707V20H339.035V15.2765H340.391C341.49 14.006 342.032 12.0329 342.032 9.35725V0.284027H352.485H352.5ZM342.379 15.2765H350.843V1.83858H343.719V9.4021C343.719 12.003 343.267 13.9611 342.379 15.2616V15.2765Z" fill="white"/>
<path d="M362.622 16.8462V15.3813C363.782 15.5457 364.641 15.187 365.213 14.32C365.8 13.453 366.102 11.8387 366.102 9.4919V0.299103H376.916V16.8462H375.244V1.85365H367.758V9.53675C367.758 11.0315 367.638 12.2871 367.397 13.2886C367.156 14.2901 366.81 15.0674 366.343 15.5756C365.876 16.0988 365.349 16.4575 364.746 16.6369C364.144 16.8312 363.436 16.891 362.607 16.8312L362.622 16.8462Z" fill="white"/>
<path d="M392.171 0.284027H398.844V16.8311H397.172V10.2093H393.165L388.587 16.8311H386.674L391.313 10.1345C390.093 9.91031 389.099 9.35726 388.331 8.4604C387.532 7.53364 387.141 6.45741 387.141 5.24665C387.141 3.87146 387.623 2.70554 388.587 1.74889C389.566 0.777293 390.756 0.284027 392.141 0.284027H392.171ZM392.171 8.65471H397.172V1.83858H392.171C391.253 1.83858 390.469 2.16743 389.807 2.84007C389.159 3.51272 388.828 4.31989 388.828 5.24665C388.828 6.1734 389.159 6.96563 389.807 7.65322C390.454 8.31092 391.237 8.63976 392.171 8.63976V8.65471Z" fill="white"/>
<path d="M433.607 8.32586L440.776 16.8311H438.818L431.95 8.74439V16.8311H430.278V8.74439L423.41 16.8311H421.452L428.621 8.32586L421.693 0.284027H423.651L430.278 7.92228V0.284027H431.95V7.92228L438.577 0.284027H440.535L433.607 8.32586Z" fill="white"/>
<path d="M462.69 16.8462H461.018V3.36337L451.725 16.8462H450.294V0.299103H451.966V13.7819L461.259 0.299103H462.69V16.8462Z" fill="white"/>
<path d="M481.351 8.281C482.27 8.6248 482.993 9.14796 483.49 9.86545C484.002 10.568 484.258 11.4051 484.258 12.3767C484.258 13.7668 483.731 14.9028 482.691 15.7997C481.652 16.6816 480.267 17.13 478.504 17.13C476.983 17.13 475.733 16.7862 474.769 16.1136C473.805 15.4409 473.112 14.5291 472.721 13.3931L474.152 12.5859C474.377 13.4828 474.844 14.2003 475.552 14.7533C476.26 15.2915 477.254 15.5605 478.504 15.5605C479.754 15.5605 480.779 15.2616 481.502 14.6935C482.24 14.1106 482.601 13.3333 482.601 12.3767C482.601 11.42 482.27 10.6427 481.607 10.0598C480.944 9.47682 480.041 9.17786 478.896 9.17786H476.983V7.6233H478.293C479.423 7.6233 480.312 7.3393 480.989 6.78624C481.652 6.23317 481.984 5.48579 481.984 4.57398C481.984 3.66217 481.652 2.94469 481.005 2.39162C480.357 1.83856 479.483 1.56951 478.384 1.56951C476.335 1.56951 474.98 2.43647 474.332 4.1704L472.947 3.36322C473.865 1.12107 475.673 0 478.384 0C479.935 0 481.215 0.433489 482.194 1.3154C483.158 2.18237 483.64 3.27353 483.64 4.57398C483.64 6.23317 482.872 7.45888 481.351 8.26605V8.281Z" fill="white"/>
<path d="M504.984 7.54859V0.284027H506.655V16.8311H504.984V9.10315H495.932V16.8311H494.26V0.284027H495.932V7.54859H504.984Z" fill="white"/>
<path d="M530 16.8462H528.328V3.36337L519.035 16.8462H517.604V0.299103H519.276V13.7819L528.569 0.299103H530V16.8462Z" fill="white"/>
</svg>
